# xmcd
#
# Track frame offsets: 
#        150
#        13565
#        31554
#        44800
#        53482
#        73296
#        90036
#        103575
#        120627
#        133441
#        151022
#        169539
#        182810
#        206445
#        232111
#        251850
#        264490
#        285334
#        310851
#        324275
#        344906
#
# Disc length: 4789 seconds
#
# Revision: 1
# Processed by: cddbd v1.5.2PL0 Copyright (c) Steve Scherf et al.
# Submitted via: ExactAudioCopy v0.99pb5
#
DISCID=2512b315
DTITLE=Dirty Blues Band - Dirty Blues Band and Stone Dirt (Remastered 20
DTITLE=07)
DYEAR=2007
DGENRE=Blues
TTITLE0=Don't Start Me Talkin'
TTITLE1=What Is Soul, Baby?
TTITLE2=Hound Dog
TTITLE3=New Orleans Woman
TTITLE4=I'll Do Anything Babe
TTITLE5=Checkin' Up On My Baby
TTITLE6=Shake It Babe
TTITLE7=Worry, Worry Blues
TTITLE8=Born Under A Bad Sign
TTITLE9=Spoonful
TTITLE10=Chicken Shack
TTITLE11=Bring It On Home
TTITLE12=It's My Own Fault Baby
TTITLE13=I Can't Quit You Baby
TTITLE14=Tell Me
TTITLE15=She's The One
TTITLE16=My Baby
TTITLE17=Sittin' Down Wonderin'
TTITLE18=Six Sides
TTITLE19=You've Got To Love Her With A Feeling
TTITLE20=Gone Too Long
EXTD=
EXTT0=
EXTT1=
EXTT2=
EXTT3=
EXTT4=
EXTT5=
EXTT6=
EXTT7=
EXTT8=
EXTT9=
EXTT10=
EXTT11=
EXTT12=
EXTT13=
EXTT14=
EXTT15=
EXTT16=
EXTT17=
EXTT18=
EXTT19=
EXTT20=
PLAYORDER=
